<svg width="24" height="25" viewBox="0 0 24 25" fill="none" xmlns="http://www.w3.org/2000/svg">
<circle cx="12" cy="12.0879" r="12" fill="#FCAF17"/>
<path d="M13.8938 6.08831C13.8384 6.08808 13.7934 6.13292 13.7934 6.18831V10.1298C13.7934 11.1872 12.9492 12.0439 11.9989 12.0439C11.0486 12.0439 10.1967 11.184 10.1967 10.1298V6.08789H8.39844V10.1298C8.39844 10.6559 8.49157 11.1768 8.67253 11.6628C8.85348 12.1489 9.1187 12.5905 9.45305 12.9624C9.7874 13.3344 10.1843 13.6294 10.6211 13.8306C11.058 14.0318 11.5261 14.1353 11.9989 14.1352C12.6849 14.1352 13.2126 13.9409 13.7934 13.3494V14.147C13.7934 15.2044 13.0447 16.0611 11.9989 16.0611C10.9531 16.0611 10.1225 15.2023 10.1225 14.147H8.39844C8.4139 15.1981 8.79999 16.2003 9.47343 16.9375C10.1469 17.6747 11.0537 18.0879 11.9984 18.0879C12.9431 18.0879 13.85 17.6747 14.5234 16.9375C15.1969 16.2003 15.583 15.1981 15.5984 14.147V6.09541L13.8938 6.08831Z" fill="#F9FAFB"/>
</svg>
